<?xml version="1.0" standalone="no"?>
<!DOCTYPE svg PUBLIC "-//W3C//DTD SVG 20010904//EN"
 "http://www.w3.org/TR/2001/REC-SVG-20010904/DTD/svg10.dtd">
<svg version="1.0" xmlns="http://www.w3.org/2000/svg"
 width="260.000000pt" height="260.000000pt" viewBox="0 0 260.000000 260.000000"
 preserveAspectRatio="xMidYMid meet">
<metadata>
Created by potrace 1.14, written by Peter Selinger 2001-2017
</metadata>
<g transform="translate(0.000000,260.000000) scale(0.100000,-0.100000)"
fill="#000000" stroke="none">
<path d="M0 1300 l0 -1300 1300 0 1300 0 0 1300 0 1300 -1300 0 -1300 0 0
-1300z m1714 -23 c44 -248 82 -462 84 -474 4 -23 3 -23 -116 -23 l-120 0 -6
33 c-3 17 -8 56 -12 85 l-7 52 -187 0 -186 0 -46 -82 -45 -83 -131 -3 -131 -3
185 328 c102 180 222 394 267 475 l82 147 145 1 145 0 79 -453z"/>
<path d="M1354 1304 c-49 -92 -90 -171 -92 -175 -2 -5 51 -9 117 -9 90 0 121
3 121 13 0 19 -50 330 -54 334 -1 2 -43 -72 -92 -163z"/>
</g>
</svg>
